<svg width="200" height="45" viewBox="0 0 200 45" fill="none" xmlns="http://www.w3.org/2000/svg">
<g id="logo 2" clip-path="url(#clip0_656_337)">
<path id="Vector" d="M2.53711 33.923V10.152H6.88751V30.4182H16.7281L16.5996 33.923H2.53711ZM19.8584 33.923V10.152H24.2088V33.923H19.8584ZM29.41 33.923V10.152H34.0333C34.868 11.4717 36.5643 14.1328 39.1221 18.1352C41.6799 22.1376 43.237 24.5715 43.7935 25.4369C43.9541 25.6857 44.227 26.1075 44.6122 26.7025C45.0082 27.2866 45.2865 27.7031 45.447 27.9519C45.3721 24.2415 45.3346 22.3161 45.3346 22.1754V10.152H49.2998V33.923H44.6122L34.0011 17.2103L33.2306 15.9284C33.3162 18.7842 33.359 20.7908 33.359 21.9483V33.923H29.41ZM54.3404 33.923V10.152H58.7068V20.8611C59.4667 19.8443 61.0185 17.9459 63.3622 15.1658C65.7167 12.3858 67.1187 10.7145 67.5681 10.152H72.7213L63.8278 20.8449L73.2829 33.923H68.1782L60.5048 23.2626L58.7068 24.7878V33.923H54.3404ZM112.356 34.2638C108.921 34.2638 106.197 33.1713 104.185 30.9861C102.173 28.8011 101.167 25.783 101.167 21.9321C101.167 18.2758 102.216 15.3443 104.314 13.1376C106.422 10.92 109.177 9.81128 112.581 9.81128C115.332 9.81128 117.659 10.4549 119.564 11.7421L118.199 15.0685C116.369 13.9327 114.529 13.3648 112.677 13.3648C110.516 13.3648 108.803 14.1544 107.54 15.7338C106.288 17.3023 105.662 19.4116 105.662 22.0619C105.662 24.8094 106.266 26.935 107.476 28.4386C108.696 29.9423 110.43 30.694 112.677 30.694C114.647 30.694 116.599 30.1965 118.536 29.2013L119.114 32.6412C117.316 33.7229 115.064 34.2638 112.356 34.2638ZM122.999 33.923V10.152H127.35V30.4182H137.19L137.062 33.923H122.999ZM140.208 33.923V10.152H154.464L154.287 13.6406H144.559V19.774H153.806V23.2626H144.559V30.4182H154.64L154.495 33.923H140.208ZM158.589 33.923V10.0871H167.306C168.494 10.0871 169.521 10.1412 170.388 10.2494C171.266 10.3575 172.095 10.5577 172.876 10.8497C173.669 11.131 174.305 11.515 174.787 12.0017C175.279 12.4886 175.664 13.1267 175.942 13.9165C176.232 14.6953 176.376 15.6202 176.376 16.6911C176.376 19.8497 174.958 21.9267 172.122 22.9219C172.7 23.5817 173.417 24.804 174.273 26.5889L177.773 33.923H173.021L170.276 27.7085C169.238 25.4801 168.595 24.1604 168.349 23.7494C168.167 23.7386 167.563 23.7331 166.536 23.7331L162.891 23.7007V33.923H158.589ZM167.691 20.5528C169.361 20.5528 170.56 20.2554 171.287 19.6604C172.015 19.0546 172.379 18.0865 172.379 16.756C172.379 15.5877 172.01 14.7277 171.271 14.1761C170.533 13.6244 169.403 13.3485 167.884 13.3485H162.891V20.5366C163.052 20.5366 163.849 20.542 165.283 20.5528C166.717 20.5528 167.52 20.5528 167.691 20.5528ZM180.871 33.923V10.152H185.237V20.8611C185.997 19.8443 187.549 17.9459 189.892 15.1658C192.247 12.3858 193.649 10.7145 194.099 10.152H199.251L190.358 20.8449L199.814 33.923H194.708L187.035 23.2626L185.237 24.7878V33.923H180.871Z" fill="white"/>
<path id="Vector_2" d="M89.8897 23.0017L89.9178 27.6425C89.9178 28.0465 89.9459 28.5363 90.0034 29.0557C90.0322 29.5455 90.0034 30.0353 89.9459 30.4974C89.8897 31.4199 89.6897 32.3709 88.976 33.0923C88.3479 33.7269 87.5212 33.9852 86.7513 34.0147C85.9808 34.0443 85.2109 33.7269 84.5828 33.0923C84.326 32.8331 84.0691 32.5158 83.9548 32.227C83.7548 31.621 83.6411 31.1607 83.5842 30.7566C83.5561 30.5546 83.528 30.3526 83.4137 30.2373C83.328 30.1506 83.2417 30.0639 83.1561 30.0934C82.0719 29.6322 81.1876 29.1996 80.2472 28.5363C79.8472 28.3057 79.5342 28.3343 79.2486 28.6231C79.1342 28.7383 79.0486 28.8823 79.0205 29.0843C78.9342 29.4588 78.963 29.8914 78.9911 30.324C78.9911 30.5546 79.0191 30.7566 79.0205 30.872C78.9917 32.9188 79.8191 34.9648 81.2732 36.4352C82.8143 37.9923 84.8109 38.7413 86.8061 38.7413C88.7746 38.7127 90.8267 37.9628 92.3095 36.4638C93.7931 34.9648 94.6205 32.9179 94.5623 30.8424L94.5904 22.9731C94.5623 20.8689 93.7637 18.9088 92.3089 17.4384C91.8808 17.0058 90.8253 16.2854 89.7137 15.7374C88.6294 15.219 87.5459 14.8731 87.0616 15.3629C86.8048 15.6221 86.6911 16.6027 86.7191 17.5537C86.7472 18.5048 86.8335 19.5139 87.0328 19.7159C87.1753 19.8598 87.4609 19.9179 87.8315 20.0619C88.2301 20.1771 88.602 20.4363 88.9726 20.8109C89.5431 21.3874 89.8849 22.1945 89.8849 23.0026L89.8897 23.0017ZM79.0233 11.8466L78.9945 19.7159C78.9664 21.7629 79.8506 23.8097 81.3048 25.2792C81.7328 25.7118 82.7596 26.4027 83.8719 26.9516C84.9267 27.4995 86.0685 27.8454 86.5534 27.3556C86.7527 27.1536 86.8952 26.0872 86.839 25.1648C86.839 24.1852 86.7815 23.2046 86.5815 23.0026C86.439 22.8587 86.1253 22.7148 85.7548 22.6281C85.3554 22.5128 84.9561 22.3393 84.5856 21.9649C84.0431 21.3597 83.7013 20.5526 83.6445 19.6873L83.6726 15.0465C83.6445 14.6139 83.6445 14.1527 83.6164 13.6629V12.222C83.6445 11.2709 83.9301 10.3476 84.6431 9.62718C85.8411 8.41599 87.7513 8.3874 88.978 9.62718C89.2637 9.91587 89.4623 10.2332 89.5774 10.521C89.8054 11.0985 89.9198 11.5587 89.9479 11.9913C89.976 12.1934 90.0623 12.3373 90.1479 12.424C90.2054 12.4821 90.2904 12.5107 90.4335 12.5965C91.5459 13.0291 92.402 13.4903 93.3431 14.1536C93.5431 14.2393 93.6849 14.3261 93.8287 14.2975C94.028 14.3261 94.1993 14.2107 94.3411 14.0669C94.4554 13.9515 94.513 13.8363 94.5411 13.6343C94.6267 13.2597 94.6267 12.7985 94.5986 12.3659C94.5705 12.1639 94.5986 11.9619 94.5986 11.8475C94.5986 9.77194 93.7712 7.72507 92.3171 6.25562C90.8061 4.72806 88.8089 3.91999 86.7849 3.94951C84.7883 3.94951 82.8205 4.72805 81.3089 6.25562C79.826 7.75456 78.9698 9.77291 79.0274 11.8475L79.0233 11.8466Z" fill="white"/>
<path id="Vector_3" d="M200.001 42.2307H2.74023V44.9999H200.001V42.2307Z" fill="#FFAE14"/>
</g>
<defs>
<clipPath id="clip0_656_337">
<rect width="200" height="45" fill="white"/>
</clipPath>
</defs>
</svg>
