<svg width="191" height="43" viewBox="0 0 191 43" fill="none" xmlns="http://www.w3.org/2000/svg">
<g clip-path="url(#clip0_515_29)">
<path d="M2.42188 32.4151V9.70061H6.5765V29.0661H15.9742L15.8516 32.4151H2.42188ZM18.9637 32.4151V9.70061H23.1183V32.4151H18.9637ZM28.0855 32.4151V9.70061H32.5007C33.2979 10.9616 34.9178 13.5045 37.3605 17.3289C39.8032 21.1535 41.2903 23.4792 41.8218 24.3061C41.9751 24.5439 42.2357 24.947 42.6036 25.5155C42.9818 26.0737 43.2475 26.4716 43.4008 26.7094C43.3293 23.1639 43.2935 21.324 43.2935 21.1896V9.70061H47.0802V32.4151H42.6036L32.47 16.4452L31.7341 15.2203C31.8159 17.9491 31.8568 19.8665 31.8568 20.9726V32.4151H28.0855ZM51.894 32.4151V9.70061H56.064V19.9337C56.7896 18.9621 58.2716 17.1481 60.5099 14.4915C62.7584 11.8351 64.0973 10.2381 64.5265 9.70061H69.4478L60.9545 19.9183L69.9841 32.4151H65.1091L57.781 22.2285L56.064 23.6859V32.4151H51.894ZM107.299 32.7407C104.018 32.7407 101.417 31.6968 99.4956 29.6088C97.5745 27.5208 96.6136 24.6369 96.6136 20.9571C96.6136 17.4633 97.615 14.6621 99.6186 12.5535C101.632 10.4345 104.263 9.375 107.514 9.375C110.141 9.375 112.363 9.99003 114.182 11.22L112.879 14.3985C111.132 13.3132 109.374 12.7705 107.606 12.7705C105.542 12.7705 103.906 13.5251 102.7 15.0343C101.504 16.533 100.907 18.5487 100.907 21.0811C100.907 23.7066 101.483 25.7377 102.639 27.1745C103.804 28.6113 105.46 29.3296 107.606 29.3296C109.486 29.3296 111.351 28.8542 113.201 27.9032L113.753 31.1902C112.036 32.2239 109.885 32.7407 107.299 32.7407ZM117.463 32.4151V9.70061H121.618V29.0661H131.016L130.893 32.4151H117.463ZM133.898 32.4151V9.70061H147.512L147.343 13.0341H138.053V18.8949H146.883V22.2285H138.053V29.0661H147.68L147.542 32.4151H133.898ZM151.452 32.4151V9.63856H159.776C160.911 9.63856 161.892 9.69022 162.72 9.79362C163.558 9.89695 164.35 10.0882 165.096 10.3673C165.852 10.636 166.46 11.003 166.921 11.4681C167.39 11.9333 167.758 12.5431 168.024 13.2977C168.3 14.042 168.438 14.9257 168.438 15.949C168.438 18.9673 167.084 20.9519 164.375 21.9029C164.927 22.5334 165.612 23.7014 166.43 25.4069L169.772 32.4151H165.234L162.613 26.4768C161.621 24.3475 161.007 23.0864 160.773 22.6936C160.599 22.6833 160.022 22.6781 159.04 22.6781L155.56 22.6471V32.4151H151.452ZM160.144 19.6392C161.739 19.6392 162.883 19.3549 163.578 18.7864C164.273 18.2075 164.621 17.2824 164.621 16.011C164.621 14.8947 164.268 14.0729 163.563 13.5458C162.858 13.0186 161.779 12.755 160.328 12.755H155.56V19.6237C155.714 19.6237 156.475 19.6288 157.844 19.6392C159.214 19.6392 159.98 19.6392 160.144 19.6392ZM172.73 32.4151V9.70061H176.9V19.9337C177.626 18.9621 179.108 17.1481 181.346 14.4915C183.595 11.8351 184.934 10.2381 185.363 9.70061H190.284L181.791 19.9183L190.821 32.4151H185.945L178.617 22.2285L176.9 23.6859V32.4151H172.73Z" fill="#1F1F1F"/>
<path d="M85.8433 21.9796L85.8701 26.4141C85.8701 26.8002 85.8969 27.2682 85.9519 27.7645C85.9794 28.2326 85.9519 28.7006 85.8969 29.1422C85.8433 30.0236 85.6523 30.9324 84.9707 31.6217C84.3709 32.2281 83.5814 32.4749 82.8462 32.5031C82.1103 32.5314 81.3751 32.2281 80.7753 31.6217C80.53 31.374 80.2847 31.0708 80.1754 30.7949C79.9844 30.2158 79.8759 29.7759 79.8216 29.3899C79.7947 29.1968 79.7679 29.0038 79.6587 28.8936C79.5769 28.8108 79.4945 28.7279 79.4127 28.7561C78.3773 28.3154 77.5328 27.902 76.6347 27.2682C76.2527 27.0479 75.9538 27.0752 75.6811 27.3511C75.5718 27.4613 75.4901 27.5988 75.4632 27.7919C75.3808 28.1497 75.4083 28.5631 75.4351 28.9765C75.4351 29.1968 75.4619 29.3899 75.4632 29.5001C75.4358 31.456 76.2259 33.411 77.6146 34.8161C79.0863 36.3039 80.9931 37.0197 82.8985 37.0197C84.7784 36.9923 86.7381 36.2758 88.1543 34.8434C89.5711 33.411 90.3612 31.4551 90.3056 29.4718L90.3324 21.9523C90.3056 19.9416 89.5429 18.0686 88.1536 16.6636C87.7448 16.2502 86.7368 15.5618 85.6752 15.0382C84.6397 14.5428 83.6049 14.2123 83.1425 14.6803C82.8972 14.928 82.7886 15.865 82.8154 16.7737C82.8422 17.6826 82.9247 18.6468 83.115 18.8398C83.2511 18.9774 83.5238 19.0329 83.8777 19.1704C84.2584 19.2806 84.6136 19.5282 84.9674 19.8861C85.5123 20.4371 85.8387 21.2083 85.8387 21.9804L85.8433 21.9796ZM75.4658 11.3203L75.4384 18.8398C75.4116 20.7958 76.256 22.7517 77.6447 24.1558C78.0535 24.5692 79.034 25.2294 80.0963 25.7539C81.1036 26.2775 82.194 26.608 82.6571 26.14C82.8475 25.947 82.9835 24.928 82.9299 24.0466C82.9299 23.1105 82.8749 22.1735 82.6839 21.9804C82.5479 21.843 82.2483 21.7054 81.8944 21.6226C81.5131 21.5124 81.1317 21.3467 80.7779 20.9889C80.2598 20.4106 79.9334 19.6393 79.8791 18.8125L79.9059 14.378C79.8791 13.9646 79.8791 13.5239 79.8523 13.0558V11.679C79.8791 10.7702 80.1519 9.88791 80.8328 9.19951C81.9769 8.04215 83.8012 8.01483 84.9727 9.19951C85.2454 9.47538 85.4351 9.77862 85.545 10.0536C85.7628 10.6054 85.8721 11.0452 85.8989 11.4586C85.9257 11.6516 86.0081 11.7892 86.0899 11.8721C86.1448 11.9276 86.2259 11.9549 86.3627 12.0369C87.4249 12.4502 88.2426 12.891 89.1413 13.5247C89.3323 13.6067 89.4677 13.6896 89.6051 13.6623C89.7954 13.6896 89.959 13.5794 90.0944 13.4419C90.2036 13.3317 90.2585 13.2215 90.2854 13.0285C90.3671 12.6706 90.3671 12.2299 90.3403 11.8165C90.3135 11.6235 90.3403 11.4304 90.3403 11.3211C90.3403 9.33784 89.5501 7.38194 88.1615 5.9778C86.7185 4.51813 84.8111 3.74598 82.8782 3.77418C80.9715 3.77418 79.0922 4.51812 77.6486 5.9778C76.2325 7.41012 75.4148 9.33877 75.4698 11.3211L75.4658 11.3203Z" fill="#1F1F1F"/>
<path d="M191.001 40.3535H2.61719V42.9997H191.001V40.3535Z" fill="#FFAE14"/>
</g>
<defs>
<clipPath id="clip0_515_29">
<rect width="191" height="43" fill="white"/>
</clipPath>
</defs>
</svg>
